<?xml version="1.0" encoding="UTF-8"?>
<!-- Generator: Adobe Illustrator 20.1.0, SVG Export Plug-In . SVG Version: 6.00 Build 0)  -->
<svg version="1.1" id="レイヤー_1" xmlns="http://www.w3.org/2000/svg" xmlns:xlink="http://www.w3.org/1999/xlink" x="0px" y="0px" viewBox="0 0 36 36" enable-background="new 0 0 36 36" xml:space="preserve">
<g>
	<path fill="#666666" d="M18.2,21.8c-0.1,0-0.2-0.1-0.2-0.2v-6.5l-3.2,3.2c-0.1,0.1-0.2,0.1-0.3,0l-3.2-3.2v6.5   c0,0.1-0.1,0.2-0.2,0.2c-0.1,0-0.2-0.1-0.2-0.2v-6.9c0-0.1,0-0.1,0.1-0.2c0.1,0,0.2,0,0.2,0l3.3,3.3l3.3-3.3c0.1-0.1,0.1-0.1,0.2,0   c0.1,0,0.1,0.1,0.1,0.2v6.9C18.4,21.7,18.3,21.8,18.2,21.8z"/>
	<g>
		<path fill="#666666" d="M31,13.3c2,5.2,0.9,11-3.1,15c-2.6,2.6-6.2,4-10,4c-3.9,0-7.6-1.6-10.5-4.4c-2.7-2.7-4.3-6.4-4.4-10.2    C3,14,4.4,10.3,7.1,7.6c2.6-2.6,6.2-4,9.9-4c2.1,0,4.1,0.4,6,1.3l0.8-0.5c-2-0.9-4.1-1.4-6.3-1.4c-4,0-7.8,1.6-10.6,4.4    C1.1,13.2,1,22.8,6.8,28.7c2.8,2.8,6.7,4.3,10.7,4.3s7.8-1.6,10.6-4.4c4.3-4.3,5.5-10.7,3.3-16.1L31,13.3z"/>
	</g>
	<path fill="#666666" d="M20.9,21.9c-0.1,0-0.2,0-0.3,0c-1-0.1-1.9-0.5-2.6-1.3c-1.4-1.6-1.2-4,0.4-5.4c1.6-1.4,4-1.2,5.4,0.4   c0.3,0.3,0.5,0.7,0.7,1.2c0,0.1,0,0.2-0.1,0.2c-0.1,0-0.2,0-0.2-0.1c-0.1-0.4-0.4-0.8-0.6-1.1c-1.2-1.4-3.4-1.6-4.9-0.3   c-1.4,1.2-1.6,3.4-0.3,4.9c0.6,0.7,1.4,1.1,2.4,1.2c0.9,0.1,1.8-0.2,2.5-0.8c0.4-0.4,0.8-0.8,1-1.4c0-0.1,0.1-0.1,0.2-0.1   c0.1,0,0.1,0.1,0.1,0.2c-0.2,0.6-0.6,1.1-1.1,1.5C22.7,21.6,21.8,21.9,20.9,21.9z"/>
</g>
</svg>