<?xml version="1.0" encoding="UTF-8"?>
<!-- Generator: Adobe Illustrator 20.1.0, SVG Export Plug-In . SVG Version: 6.00 Build 0)  -->
<svg version="1.1" id="レイヤー_1" xmlns="http://www.w3.org/2000/svg" xmlns:xlink="http://www.w3.org/1999/xlink" x="0px" y="0px" viewBox="0 0 40 40" enable-background="new 0 0 40 40" xml:space="preserve">
<g>
	<polygon fill="#050001" points="2.5,13.4 2.5,13.4 2.5,13.4  "/>
	<path fill="#050001" d="M37.2,2.7c-0.4,0-1.6,0-2.7,0c-0.5,0-1.1,0-1.4,0c-0.2,0-0.3,0-0.5,0c-0.1,0-0.2,0-0.2,0   c-0.6,0-1.1,0.2-1.6,0.6c-0.4,0.3-0.8,0.8-0.9,1.4l-5,22.1c0,0.2-0.1,0.4-0.3,0.5c-0.1,0.1-0.3,0.2-0.5,0.2H7.4   c-0.2,0-0.4-0.1-0.5-0.2c-0.1-0.1-0.2-0.3-0.3-0.5L3.7,15.1c0-0.1,0-0.1,0-0.2c0-0.2,0.1-0.4,0.2-0.5l0,0c0.2-0.2,0.4-0.3,0.7-0.3   h20.1c0.5,0,0.8-0.4,0.8-0.8c0-0.5-0.4-0.8-0.8-0.8H4.5c-0.8,0-1.5,0.4-2,1c-0.4,0.4-0.5,1-0.5,1.6c0,0.2,0,0.4,0.1,0.6L5,27.3   c0.1,0.6,0.5,1,0.9,1.4c0.4,0.3,1,0.5,1.6,0.5h16.7c0.6,0,1.1-0.2,1.6-0.6c0.4-0.3,0.8-0.8,0.9-1.4l5-22.1c0-0.2,0.1-0.4,0.3-0.5   c0.1-0.1,0.3-0.2,0.5-0.2c0,0,3.9,0,4.8,0c0.5,0,0.8-0.4,0.8-0.8C38,3.1,37.6,2.7,37.2,2.7z"/>
	<path fill="#050001" d="M10.7,31.2c-0.5-0.4-1.2-0.6-1.9-0.6c-0.5,0-0.9,0.1-1.3,0.3c-0.6,0.3-1.1,0.7-1.5,1.2   c-0.4,0.5-0.6,1.2-0.6,1.9c0,0.5,0.1,0.9,0.3,1.3c0.3,0.6,0.7,1.1,1.2,1.5c0.5,0.4,1.2,0.6,1.9,0.6c0.5,0,0.9-0.1,1.3-0.3   c0.6-0.3,1.1-0.7,1.5-1.2c0.4-0.5,0.6-1.2,0.6-1.9c0-0.5-0.1-0.9-0.3-1.3C11.7,32.1,11.2,31.5,10.7,31.2z M10.4,34.6   c-0.1,0.3-0.3,0.5-0.6,0.7c-0.3,0.2-0.6,0.3-0.9,0.3c-0.2,0-0.4,0-0.6-0.1c-0.3-0.1-0.5-0.3-0.7-0.6c-0.2-0.3-0.3-0.6-0.3-0.9   c0-0.2,0-0.4,0.1-0.6C7.5,33,7.7,32.8,8,32.6c0.3-0.2,0.6-0.3,0.9-0.3c0.2,0,0.4,0,0.6,0.1c0.3,0.1,0.5,0.3,0.7,0.6   c0.2,0.3,0.3,0.6,0.3,0.9C10.5,34.2,10.4,34.4,10.4,34.6z"/>
	<path fill="#050001" d="M24.9,31.2c-0.5-0.4-1.2-0.6-1.9-0.6c-0.5,0-0.9,0.1-1.3,0.3c-0.6,0.3-1.1,0.7-1.5,1.2   c-0.4,0.5-0.6,1.2-0.6,1.9c0,0.5,0.1,0.9,0.3,1.3c0.3,0.6,0.7,1.1,1.2,1.5c0.5,0.4,1.2,0.6,1.9,0.6c0.5,0,0.9-0.1,1.3-0.3   c0.6-0.3,1.1-0.7,1.5-1.2c0.4-0.5,0.6-1.2,0.6-1.9c0-0.5-0.1-0.9-0.3-1.3C25.8,32.1,25.4,31.5,24.9,31.2z M24.5,34.6   c-0.1,0.3-0.3,0.5-0.6,0.7c-0.3,0.2-0.6,0.3-0.9,0.3c-0.2,0-0.4,0-0.6-0.1c-0.3-0.1-0.5-0.3-0.7-0.6c-0.2-0.3-0.3-0.6-0.3-0.9   c0-0.2,0-0.4,0.1-0.6c0.1-0.3,0.3-0.5,0.6-0.7c0.3-0.2,0.6-0.3,0.9-0.3c0.2,0,0.4,0,0.6,0.1c0.3,0.1,0.5,0.3,0.7,0.6   c0.2,0.3,0.3,0.6,0.3,0.9C24.6,34.2,24.6,34.4,24.5,34.6z"/>
</g>
</svg>